<?xml version="1.0" encoding="utf-8"?>
<!-- Generator: Adobe Illustrator 27.5.0, SVG Export Plug-In . SVG Version: 6.00 Build 0)  -->
<svg version="1.1" xmlns="http://www.w3.org/2000/svg" xmlns:xlink="http://www.w3.org/1999/xlink" x="0px" y="0px"
	 viewBox="0 0 500 500" style="enable-background:new 0 0 500 500;" xml:space="preserve">
<g id="BACKGROUND">
	<rect x="-0.007" style="fill:none;" width="500" height="500"/>
</g>
<g id="OBJECTS">
	<g>
		<ellipse style="fill:#9BC4ED;" cx="250.48" cy="455.984" rx="199.673" ry="7.35"/>
		<g>
			<g>
				<g>
					<g>
						<polygon style="fill:#9BC4ED;" points="157.288,280.147 145.178,457.239 72.626,457.239 60.517,280.147 						"/>
					</g>
				</g>
				<g>
					<g>
						<g>
							<polygon style="fill:#7FAFE1;" points="156.481,291.944 61.697,297.405 61.017,287.469 156.787,287.469 							"/>
						</g>
					</g>
				</g>
				<g>
					<g>
						<path style="fill:#9BC4ED;" d="M160.897,287.469H56.907c-1.212,0-2.194-0.982-2.194-2.194v-6.597
							c0-1.212,0.983-2.194,2.194-2.194h103.99c1.212,0,2.194,0.983,2.194,2.194v6.597
							C163.092,286.487,162.109,287.469,160.897,287.469z"/>
					</g>
				</g>
				<g>
					<g>
						<polygon style="fill:#7FAFE1;" points="146.447,307.644 144.068,349.567 73.736,349.567 71.357,307.644 						"/>
					</g>
				</g>
				<g>
					<g>
						<path style="fill:#9BC4ED;" d="M112.412,330.336c0,1.939-1.572,3.51-3.51,3.51c-1.939,0-3.51-1.572-3.51-3.51
							c0-1.939,1.572-3.51,3.51-3.51C110.841,326.825,112.412,328.397,112.412,330.336z"/>
					</g>
				</g>
				<g>
					<g>
						<polygon style="fill:#7FAFE1;" points="143.137,359.386 140.968,397.612 76.837,397.612 74.667,359.386 						"/>
					</g>
				</g>
				<g>
					<g>
						<circle style="fill:#9BC4ED;" cx="108.902" cy="379.888" r="3.51"/>
					</g>
				</g>
				<g>
					<g>
						<polygon style="fill:#7FAFE1;" points="140.28,407.268 138.292,442.304 79.513,442.304 77.525,407.268 						"/>
					</g>
				</g>
				<g>
					<g>
						<path style="fill:#9BC4ED;" d="M112.412,424.785c0,1.939-1.572,3.51-3.51,3.51c-1.939,0-3.51-1.572-3.51-3.51
							c0-1.939,1.572-3.51,3.51-3.51C110.841,421.275,112.412,422.847,112.412,424.785z"/>
					</g>
				</g>
			</g>
		</g>
		<g>
			<g>
				<path style="fill:#9BC4ED;" d="M205.113,176.722V69.534c0-1.675-1.358-3.034-3.034-3.034h-55.752v112.378h56.631
					C204.148,178.878,205.113,177.913,205.113,176.722z"/>
			</g>
			<g>
				<path style="fill:#9BC4ED;" d="M82.625,176.722V69.534c0-1.675,1.358-3.034,3.034-3.034h55.752v112.378H84.78
					C83.59,178.878,82.625,177.913,82.625,176.722z"/>
			</g>
			<g>
				<g>
					<polygon style="fill:#7FAFE1;" points="171.625,84.66 171.625,103.584 178.594,103.69 					"/>
				</g>
				<g>
					<path style="fill:#FFFFFF;" d="M171.702,84.277h19.988c0,0,0.23,16.769,3.446,19.413h-19.988
						C175.148,103.69,171.013,97.373,171.702,84.277z"/>
				</g>
				<g>
					<rect x="176.109" y="89.69" style="fill:#9BC4ED;" width="13.219" height="0.647"/>
				</g>
				<g>
					<rect x="176.109" y="93.018" style="fill:#9BC4ED;" width="13.219" height="0.647"/>
				</g>
				<g>
					<rect x="176.109" y="96.345" style="fill:#9BC4ED;" width="13.219" height="0.647"/>
				</g>
			</g>
			<g>
				<g>
					<polygon style="fill:#7FAFE1;" points="157.543,134.175 157.543,153.098 164.512,153.204 					"/>
				</g>
				<g>
					<path style="fill:#FFFFFF;" d="M157.62,133.792h19.988c0,0,0.23,16.77,3.446,19.412h-19.988
						C161.066,153.204,156.931,146.888,157.62,133.792z"/>
				</g>
				<g>
					<rect x="162.027" y="139.204" style="fill:#9BC4ED;" width="13.219" height="0.647"/>
				</g>
				<g>
					<rect x="162.027" y="142.532" style="fill:#9BC4ED;" width="13.219" height="0.647"/>
				</g>
				<g>
					<rect x="162.027" y="145.86" style="fill:#9BC4ED;" width="13.219" height="0.647"/>
				</g>
			</g>
			<g>
				<g>
					<polygon style="fill:#7FAFE1;" points="105.048,108.963 105.048,127.887 112.018,127.993 					"/>
				</g>
				<g>
					<path style="fill:#FFFFFF;" d="M105.125,108.58h19.988c0,0,0.23,16.77,3.446,19.413h-19.988
						C108.572,127.993,104.436,121.676,105.125,108.58z"/>
				</g>
				<g>
					<rect x="109.532" y="113.992" style="fill:#9BC4ED;" width="13.219" height="0.647"/>
				</g>
				<g>
					<rect x="109.532" y="117.32" style="fill:#9BC4ED;" width="13.219" height="0.647"/>
				</g>
				<g>
					<rect x="109.532" y="120.648" style="fill:#9BC4ED;" width="13.219" height="0.647"/>
				</g>
			</g>
		</g>
		<g>
			<g>
				<g>
					<path style="fill:#9BC4ED;" d="M376.357,197.52H225.869c-1.269,0-2.298-1.029-2.298-2.298V69.279
						c0-1.269,1.029-2.298,2.298-2.298h150.488c1.269,0,2.298,1.029,2.298,2.298v125.943
						C378.655,196.491,377.627,197.52,376.357,197.52z"/>
				</g>
			</g>
			<g>
				<g>
					<path style="fill:#BADEFD;" d="M228.152,192.02V72.481c0-0.507,0.411-0.919,0.919-0.919h144.084
						c0.507,0,0.919,0.411,0.919,0.919V192.02c0,0.508-0.411,0.919-0.919,0.919H229.071
						C228.564,192.939,228.152,192.527,228.152,192.02z"/>
				</g>
			</g>
			<g>
				<rect x="299.643" y="69.574" style="fill:#9BC4ED;" width="2.94" height="123.364"/>
			</g>
			<g>
				
					<rect x="298.3" y="21.1" transform="matrix(6.123234e-17 -1 1 6.123234e-17 204.3656 395.1741)" style="fill:#9BC4ED;" width="2.94" height="148.608"/>
			</g>
		</g>
		<g>
			<g>
				<g>
					<g>
						<path style="fill:#9BC4ED;" d="M423.068,120.813c-13.302,0-24.123-10.822-24.123-24.123c0-13.302,10.821-24.123,24.123-24.123
							c13.302,0,24.123,10.822,24.123,24.123C447.191,109.991,436.37,120.813,423.068,120.813z"/>
					</g>
				</g>
			</g>
			<g>
				<g>
					
						<ellipse transform="matrix(0.141 -0.99 0.99 0.141 267.687 501.8958)" style="fill:#FFFFFF;" cx="423.068" cy="96.689" rx="19.102" ry="19.102"/>
				</g>
			</g>
			<g>
				<g>
					<path style="fill:#9BC4ED;" d="M423.11,82.544h-0.084c-0.228,0-0.413-0.185-0.413-0.413v-2.765
						c0-0.228,0.185-0.413,0.413-0.413h0.084c0.228,0,0.413,0.185,0.413,0.413v2.765C423.523,82.359,423.338,82.544,423.11,82.544z"
						/>
				</g>
			</g>
			<g>
				<g>
					<path style="fill:#9BC4ED;" d="M413.095,86.658l-0.059,0.059c-0.161,0.161-0.423,0.161-0.584,0l-1.955-1.955
						c-0.161-0.161-0.161-0.423,0-0.584l0.059-0.059c0.161-0.161,0.423-0.161,0.584,0l1.955,1.955
						C413.257,86.235,413.257,86.496,413.095,86.658z"/>
				</g>
			</g>
			<g>
				<g>
					<path style="fill:#9BC4ED;" d="M408.923,96.648v0.084c0,0.228-0.185,0.413-0.413,0.413h-2.765
						c-0.228,0-0.413-0.185-0.413-0.413v-0.084c0-0.228,0.185-0.413,0.413-0.413h2.765C408.738,96.235,408.923,96.42,408.923,96.648
						z"/>
				</g>
			</g>
			<g>
				<g>
					<path style="fill:#9BC4ED;" d="M413.036,106.662l0.059,0.059c0.161,0.161,0.161,0.423,0,0.584l-1.955,1.955
						c-0.161,0.161-0.422,0.161-0.584,0l-0.059-0.059c-0.162-0.161-0.162-0.423,0-0.584l1.955-1.955
						C412.613,106.501,412.875,106.501,413.036,106.662z"/>
				</g>
			</g>
			<g>
				<g>
					<path style="fill:#9BC4ED;" d="M423.026,110.835h0.084c0.228,0,0.413,0.185,0.413,0.413v2.765c0,0.228-0.185,0.413-0.413,0.413
						h-0.084c-0.228,0-0.413-0.185-0.413-0.413v-2.765C422.613,111.02,422.798,110.835,423.026,110.835z"/>
				</g>
			</g>
			<g>
				<g>
					<path style="fill:#9BC4ED;" d="M433.041,106.721l0.059-0.059c0.161-0.161,0.423-0.161,0.584,0l1.955,1.955
						c0.161,0.161,0.161,0.423,0,0.584l-0.059,0.059c-0.161,0.161-0.423,0.161-0.584,0l-1.955-1.955
						C432.88,107.144,432.88,106.883,433.041,106.721z"/>
				</g>
			</g>
			<g>
				<g>
					<path style="fill:#9BC4ED;" d="M437.214,96.731v-0.084c0-0.228,0.185-0.413,0.413-0.413h2.765c0.228,0,0.413,0.185,0.413,0.413
						v0.084c0,0.228-0.185,0.413-0.413,0.413h-2.765C437.399,97.144,437.214,96.959,437.214,96.731z"/>
				</g>
			</g>
			<g>
				<g>
					<path style="fill:#9BC4ED;" d="M433.095,86.712l-0.05-0.05c-0.164-0.164-0.164-0.43,0-0.594l1.946-1.946
						c0.164-0.164,0.43-0.164,0.594,0l0.05,0.05c0.164,0.164,0.164,0.43,0,0.593l-1.945,1.946
						C433.525,86.876,433.259,86.876,433.095,86.712z"/>
				</g>
			</g>
			<g>
				<g>
					<path style="fill:#53647C;" d="M433.114,97.005c-0.035,0.035-0.084,0.057-0.138,0.056l-9.813-0.11
						c-0.105-0.001-0.189-0.087-0.189-0.192V85.832c0-0.106,0.086-0.191,0.191-0.191c0.106,0,0.191,0.086,0.191,0.191V96.57
						l9.624,0.108c0.106,0.001,0.191,0.088,0.189,0.194C433.17,96.924,433.148,96.971,433.114,97.005z"/>
				</g>
			</g>
		</g>
		<g>
			<path style="fill:#7FAFE1;" d="M448.007,197.758h-51.801c-2.803,0-5.075-2.272-5.075-5.075v-55.264
				c0-2.803,2.272-5.075,5.075-5.075h51.801c2.803,0,5.075,2.272,5.075,5.075v55.264
				C453.082,195.486,450.81,197.758,448.007,197.758z"/>
			<path style="fill:#9BC4ED;" d="M395.148,190.183v-50.264c0-1.965,1.593-3.557,3.557-3.557h46.802
				c1.965,0,3.557,1.593,3.557,3.557v50.264c0,1.965-1.593,3.557-3.557,3.557h-46.802
				C396.741,193.74,395.148,192.148,395.148,190.183z"/>
			<path style="fill:#FFFFFF;" d="M438.278,167.317c-7.083,10-4.95,17.833-9.808,19.25c-0.231,0.067-0.447,0.099-0.65,0.099
				c-0.026,0-0.051-0.001-0.076-0.002h-0.007c-0.016-0.001-0.032-0.002-0.048-0.003c-0.003,0-0.006,0-0.009,0
				c-0.013-0.001-0.027-0.002-0.04-0.003c-0.024-0.002-0.048-0.005-0.072-0.008c-0.017-0.002-0.034-0.005-0.051-0.008
				c-0.012-0.002-0.023-0.004-0.034-0.006c-0.021-0.004-0.041-0.008-0.061-0.013c-0.018-0.004-0.037-0.009-0.055-0.014
				c-0.007-0.002-0.013-0.003-0.02-0.005c-0.014-0.004-0.028-0.008-0.043-0.013c-0.001,0-0.001,0-0.001-0.001
				c-0.007-0.002-0.015-0.004-0.022-0.007c-0.023-0.007-0.047-0.016-0.07-0.024c-0.018-0.007-0.036-0.014-0.054-0.021
				c-0.007-0.003-0.014-0.006-0.021-0.009c-0.02-0.008-0.04-0.017-0.06-0.027c-0.022-0.011-0.044-0.022-0.067-0.034
				c-0.023-0.012-0.047-0.025-0.071-0.039c-0.023-0.013-0.046-0.028-0.069-0.043c-0.001-0.001-0.002-0.001-0.003-0.002
				c-0.017-0.01-0.034-0.022-0.051-0.034c-0.021-0.014-0.042-0.029-0.062-0.045c-0.046-0.034-0.091-0.072-0.135-0.111
				c-0.015-0.013-0.029-0.026-0.044-0.04c-0.013-0.012-0.027-0.025-0.04-0.038l-0.002-0.002c-0.022-0.022-0.044-0.044-0.066-0.068
				c-0.011-0.011-0.021-0.022-0.031-0.033c-0.024-0.025-0.047-0.052-0.069-0.079c-0.033-0.039-0.064-0.079-0.096-0.12
				c-0.01-0.013-0.021-0.027-0.03-0.04c-0.003-0.004-0.006-0.007-0.008-0.011c-0.012-0.017-0.024-0.034-0.036-0.051
				c-0.015-0.021-0.03-0.042-0.044-0.065c-0.035-0.052-0.069-0.105-0.102-0.161c-0.011-0.018-0.022-0.037-0.033-0.056
				c-0.015-0.024-0.028-0.049-0.043-0.075c-0.01-0.018-0.019-0.036-0.029-0.054c-0.071-0.131-0.139-0.271-0.203-0.417
				c-0.012-0.027-0.024-0.055-0.036-0.083c-0.032-0.076-0.064-0.153-0.094-0.233c-0.009-0.023-0.018-0.047-0.027-0.07
				c-0.008-0.022-0.017-0.044-0.025-0.067c-0.008-0.022-0.017-0.045-0.025-0.068c-0.015-0.043-0.03-0.086-0.044-0.129
				c-0.011-0.032-0.022-0.064-0.033-0.097c-0.011-0.031-0.021-0.062-0.031-0.093c-0.014-0.045-0.028-0.09-0.042-0.136
				c-0.008-0.026-0.016-0.052-0.023-0.078c-0.01-0.035-0.02-0.07-0.031-0.105c-0.01-0.035-0.02-0.071-0.03-0.106
				c-0.04-0.142-0.078-0.288-0.115-0.436c-0.01-0.039-0.02-0.078-0.029-0.118c-0.014-0.059-0.028-0.119-0.042-0.18
				c-0.009-0.04-0.019-0.081-0.028-0.122c-0.011-0.051-0.023-0.102-0.034-0.153c-0.011-0.051-0.022-0.103-0.033-0.154
				c-0.008-0.042-0.017-0.083-0.026-0.125c-0.027-0.133-0.053-0.268-0.079-0.404c-0.009-0.05-0.019-0.101-0.028-0.151
				c-0.01-0.051-0.018-0.101-0.027-0.152c-0.004-0.019-0.007-0.039-0.01-0.059c-0.658-3.752-0.822-8.312-2.238-8.997
				c-2.453,1.186-1.15,14.006-5.164,14.099c-0.216,0.005-0.446-0.027-0.694-0.099c-4.858-1.417-2.725-9.25-9.808-19.25
				c-7.084-10-1.471-21.191,4.637-20.833c1.768,0.104,3.371,0.45,4.773,0.902c3.09,0.998,6.377,1.184,9.538,0.558
				c0.776-0.154,1.545-0.356,2.301-0.608c0.708-0.236,1.484-0.438,2.328-0.586c0.004,0,0.007-0.001,0.011-0.002
				c0.949-0.167,1.984-0.265,3.106-0.265C439.759,146.484,445.361,157.317,438.278,167.317z"/>
		</g>
		<g>
			<g>
				<g>
					<polygon style="fill:#9BC4ED;" points="84.278,218.622 84.278,225.094 76.836,225.094 76.836,232.535 70.364,232.535 
						70.364,225.094 62.924,225.094 62.924,218.622 70.364,218.622 70.364,211.182 76.836,211.182 76.836,218.622 					"/>
				</g>
			</g>
			<g>
				<g>
					<polygon style="fill:#9BC4ED;" points="351.876,118.953 351.876,125.425 344.434,125.425 344.434,132.867 337.962,132.867 
						337.962,125.425 330.522,125.425 330.522,118.953 337.962,118.953 337.962,111.513 344.434,111.513 344.434,118.953 					"/>
				</g>
			</g>
			<g>
				<path style="fill:#9BC4ED;" d="M390.27,238.983c-4.464,0-8.096-3.632-8.096-8.096c0-4.464,3.632-8.096,8.096-8.096
					c4.464,0,8.096,3.632,8.096,8.096C398.365,235.351,394.734,238.983,390.27,238.983z M390.27,224.386
					c-3.585,0-6.501,2.916-6.501,6.501c0,3.584,2.916,6.501,6.501,6.501c3.585,0,6.501-2.916,6.501-6.501
					C396.77,227.303,393.854,224.386,390.27,224.386z"/>
			</g>
			<g>
				<path style="fill:#9BC4ED;" d="M251.227,156.67c-4.464,0-8.096-3.632-8.096-8.096c0-4.464,3.632-8.096,8.096-8.096
					c4.464,0,8.096,3.632,8.096,8.096C259.323,153.038,255.691,156.67,251.227,156.67z M251.227,142.074
					c-3.584,0-6.501,2.916-6.501,6.501c0,3.585,2.916,6.501,6.501,6.501c3.585,0,6.501-2.916,6.501-6.501
					C257.728,144.99,254.812,142.074,251.227,142.074z"/>
			</g>
		</g>
		<g>
			<g>
				<g>
					<g>
						<g>
							<g>
								<g>
									<rect x="357.11" y="399.413" style="fill:#7FAFE1;" width="75.158" height="56.045"/>
								</g>
							</g>
						</g>
					</g>
				</g>
			</g>
			<g>
				<g>
					<g>
						<g>
							<g>
								<g>
									<rect x="364.565" y="399.413" style="fill:#9BC4ED;" width="75.158" height="56.045"/>
								</g>
							</g>
						</g>
					</g>
				</g>
			</g>
			<g>
				<g>
					<g>
						<g>
							<g>
								<rect x="364.565" y="453.279" style="fill:#7FAFE1;" width="75.158" height="2.13"/>
							</g>
						</g>
					</g>
				</g>
			</g>
			<g>
				<g>
					<g>
						<g>
							<g>
								<rect x="364.565" y="426.987" style="fill:#7FAFE1;" width="75.158" height="2.13"/>
							</g>
						</g>
					</g>
				</g>
			</g>
			<g>
				<g>
					<g>
						<g>
							<g>
								<rect x="374.024" y="422.549" style="fill:#7FAFE1;" width="5.802" height="11.829"/>
							</g>
						</g>
					</g>
				</g>
			</g>
			<g>
				<g>
					<g>
						<g>
							<g>
								<rect x="424.433" y="422.549" style="fill:#7FAFE1;" width="5.802" height="11.829"/>
							</g>
						</g>
					</g>
				</g>
			</g>
			<g>
				<g>
					<g>
						<g>
							<g>
								<path style="fill:#7FAFE1;" d="M418.814,399.413h-2.929v-8.52c0-1.908-1.553-3.461-3.461-3.461h-25.56
									c-1.908,0-3.461,1.553-3.461,3.461v8.52h-2.929v-8.52c0-3.523,2.867-6.39,6.39-6.39h25.56c3.523,0,6.39,2.867,6.39,6.39
									V399.413z"/>
							</g>
						</g>
					</g>
				</g>
			</g>
			<g>
				<g>
					<g>
						<g>
							<g>
								<rect x="378.478" y="392.69" style="fill:#7FAFE1;" width="6.723" height="6.723"/>
							</g>
						</g>
					</g>
				</g>
			</g>
			<g>
				<g>
					<g>
						<g>
							<g>
								<rect x="413.988" y="392.69" style="fill:#7FAFE1;" width="6.723" height="6.723"/>
							</g>
						</g>
					</g>
				</g>
			</g>
		</g>
		<g>
			<g>
				<path style="fill:#9BC4ED;" d="M123.264,276.517v-21.206c0-0.817-0.595-1.479-1.33-1.479h-14.241
					c-0.735,0-1.33,0.662-1.33,1.479v21.206H123.264z"/>
			</g>
			<g>
				<path style="fill:#7FAFE1;" d="M121.714,274.27v-16.85c0-0.661-0.486-1.198-1.086-1.198H109c-0.6,0-1.086,0.536-1.086,1.198
					v16.85H121.714z"/>
			</g>
			<g>
				<path style="fill:#FFFFFF;" d="M108.953,252.948h11.697c0.087,0,0.158-0.071,0.158-0.158v-3.66c0-0.306-0.248-0.555-0.555-0.555
					h-10.928c-0.306,0-0.555,0.248-0.555,0.555v3.635C108.77,252.866,108.852,252.948,108.953,252.948z"/>
			</g>
			<g>
				
					<rect x="110.097" y="252.948" transform="matrix(-1 -1.224647e-16 1.224647e-16 -1 229.627 506.7802)" style="fill:#9BC4ED;" width="9.434" height="0.884"/>
			</g>
			<g>
				<path style="fill:#FFFFFF;" d="M123.584,260.794v8.129c0,0.066-0.053,0.119-0.119,0.119h-17.376
					c-0.066,0-0.119-0.053-0.119-0.119v-8.129c0-0.066,0.053-0.119,0.119-0.119h17.376
					C123.531,260.676,123.584,260.729,123.584,260.794z"/>
			</g>
			<g>
				<rect x="105.969" y="261.769" style="fill:#9BC4ED;" width="17.614" height="5.754"/>
			</g>
		</g>
		<g>
			<g>
				<path style="fill:#9BC4ED;" d="M96.102,276.517v-21.206c0-0.817-0.595-1.479-1.33-1.479H80.53c-0.734,0-1.33,0.662-1.33,1.479
					v21.206H96.102z"/>
			</g>
			<g>
				<g>
					<g>
						<path style="fill:#7FAFE1;" d="M94.551,274.27v-16.85c0-0.661-0.486-1.198-1.086-1.198H81.837c-0.6,0-1.087,0.536-1.087,1.198
							v16.85H94.551z"/>
					</g>
				</g>
			</g>
			<g>
				<path style="fill:#FFFFFF;" d="M81.765,252.948h11.722c0.087,0,0.158-0.071,0.158-0.158v-3.66c0-0.306-0.248-0.555-0.555-0.555
					H82.162c-0.306,0-0.555,0.248-0.555,0.555v3.661C81.608,252.877,81.678,252.948,81.765,252.948z"/>
			</g>
			<g>
				
					<rect x="82.934" y="252.948" transform="matrix(-1 -1.224647e-16 1.224647e-16 -1 175.302 506.7802)" style="fill:#9BC4ED;" width="9.434" height="0.884"/>
			</g>
			<g>
				<path style="fill:#FFFFFF;" d="M96.421,260.794v8.129c0,0.066-0.053,0.119-0.119,0.119H78.926c-0.066,0-0.119-0.053-0.119-0.119
					v-8.129c0-0.066,0.053-0.119,0.119-0.119h17.376C96.368,260.676,96.421,260.729,96.421,260.794z"/>
			</g>
			<g>
				<rect x="78.807" y="261.769" style="fill:#9BC4ED;" width="17.614" height="5.754"/>
			</g>
		</g>
	</g>
	<g>
		<g>
			<path style="fill:#24318E;" d="M219.919,311.95c0,0,6.8,26.362,16.334,23.112c9.533-3.25,56.669-20.766,74.939-39.809
				c0,0,17.661,17.188,32.425,23.925c18.502,8.443,60.663,30.651,60.663,30.651l7.779-13.271c0,0-78.743-65.924-91.512-73.946
				c-12.769-8.022-105.08,16.254-105.08,16.254L219.919,311.95z"/>
			<g>
				<g>
					<g>
						<polygon style="fill:#FD8563;" points="388.6,328.299 415.091,344.968 408.737,353.818 378.979,342.001 						"/>
					</g>
				</g>
				<g>
					<path style="fill:#5A91FF;" d="M444.708,337.707l-35.898,28.768c-0.496-0.504-0.965-1.048-1.424-1.619
						c-0.202-0.252-0.38-0.512-0.586-0.76c-4.035-4.846-12.19-15.221-8.724-15.508c5.335,2.143,9.799-4.132,9.799-4.132
						s-0.188-7.593,3.397-8.118c3.585-0.526,2.973,4.424,8.057,4.34c3.894-0.069,6.049-3.551,10.149-5.72
						c1.252-0.666,2.679-1.199,4.4-1.48c4.011-0.651,6.865,0.667,8.639,1.996C443.983,336.589,444.708,337.707,444.708,337.707z"/>
				</g>
				<g>
					<g>
						<path style="fill:#FFFFFF;" d="M400.261,354.404c5.591-1.386,11.357-0.468,16.24,2.591c0.356,0.223,0.019,0.783-0.339,0.559
							c-4.738-2.969-10.308-3.863-15.737-2.517C400.016,355.138,399.852,354.505,400.261,354.404L400.261,354.404z"/>
					</g>
				</g>
				<g>
					<g>
						<path style="fill:#FFFFFF;" d="M418.144,339.902c-0.059,0.035-0.117,0.054-0.173,0.067c-0.706,0.899-1.191,1.984-1.395,3.215
							c-0.095,0.573,0.801,0.67,0.895,0.099c0.173-1.047,0.59-1.983,1.197-2.762c0.276-0.354-0.121-0.849-0.51-0.626
							C418.153,339.897,418.149,339.899,418.144,339.902z"/>
					</g>
				</g>
				<g>
					<g>
						<path style="fill:#FFFFFF;" d="M419.971,339.58c-0.059,0.034-0.117,0.054-0.173,0.067c-0.706,0.899-1.191,1.984-1.395,3.215
							c-0.095,0.573,0.801,0.67,0.895,0.099c0.173-1.047,0.59-1.983,1.197-2.762c0.276-0.354-0.121-0.85-0.51-0.626
							C419.98,339.575,419.975,339.577,419.971,339.58z"/>
					</g>
				</g>
				<g>
					<g>
						<path style="fill:#FFFFFF;" d="M422.221,338.963c-0.059,0.035-0.117,0.054-0.173,0.067c-0.706,0.899-1.191,1.984-1.395,3.215
							c-0.095,0.573,0.801,0.67,0.896,0.099c0.173-1.047,0.589-1.983,1.197-2.762c0.276-0.354-0.121-0.849-0.511-0.626
							C422.231,338.958,422.226,338.96,422.221,338.963z"/>
					</g>
				</g>
				<g>
					<g>
						<path style="fill:#FFFFFF;" d="M424.507,337.677c-0.059,0.034-0.117,0.054-0.173,0.067c-0.706,0.899-1.191,1.984-1.395,3.215
							c-0.095,0.573,0.801,0.67,0.895,0.099c0.173-1.047,0.59-1.983,1.197-2.762c0.276-0.354-0.121-0.849-0.51-0.626
							C424.516,337.672,424.511,337.674,424.507,337.677z"/>
					</g>
				</g>
				<g>
					<path style="fill:#FFFFFF;" d="M442.517,335.473l-8.469,6.787c-3.409-2.169-4.43-4.985-4.571-7.303
						c1.252-0.666,2.679-1.199,4.4-1.48C437.889,332.826,440.742,334.144,442.517,335.473z"/>
				</g>
				<g>
					<path style="fill:#FFFFFF;" d="M444.708,337.707l-35.898,28.768c-0.496-0.504-0.965-1.048-1.424-1.619l-0.6-0.749
						l35.731-28.635C443.983,336.589,444.708,337.707,444.708,337.707z"/>
				</g>
			</g>
			<path style="fill:#275CC7;" d="M196.382,333.982c0,0,1.911,4.983,11.701,7.351c22.423,5.424,70.173-10.306,91.144-28.265
				c0,0,21.732,7.785,36.457,14.609c17.497,8.108,58.653,22.321,58.653,22.321l8.56-13.922c0,0-87.111-61.038-100.239-68.459
				c-13.128-7.42-103.406,26.072-103.406,26.072L196.382,333.982z"/>
			<polygon style="fill:#5A91FF;" points="398.417,331.518 387.961,348.802 394.362,352.216 403.538,336.213 			"/>
			<g>
				<path style="fill:#10283B;" d="M121.747,148.696c0,0,10.628,4.889,14.361,12.053c3.733,7.163,7.099,25.295,15.149,33.136
					c14.469,14.092,18.199,17.448,16.594,27.364c-1.223,7.558-12.799,13.496-22.918,11.91
					c-10.119-1.586-13.185-32.075-13.185-32.075L121.747,148.696z"/>
			</g>
			<g>
				<path style="fill:#D4652D;" d="M136.722,187.544c0.43,1.389,1.062,3.735,1.706,6.187c1.181,4.51,1.463,13.482,1.463,13.482
					l-19.361,9.062l-6.849-29.902l22.561-0.114C136.327,186.343,136.497,186.81,136.722,187.544z"/>
			</g>
			<g>
				<path style="fill:#10283B;" d="M136.722,187.544c0.43,1.389,1.062,3.735,1.706,6.187c-2.91-0.083-7.408-1.537-12.384-3.407
					L136.722,187.544z"/>
			</g>
			<g>
				<path style="fill:#5A91FF;" d="M210.856,341.547c-13.016-6.615-12.376-14.937-10.242-20.698
					c1.748-4.719,9.038-15.262,13.23-19.631c10.494-10.937,10.685-22.02,10.034-24.594c-0.651-2.574-34.706-31.919-35.285-34.14
					c-0.579-2.221,4.34-12.749-6.542-19.79c-15.043-9.734-11.949-2.774-42.249-17.71c0.853,4.054-5.32,2.021-11.209,0.018
					c-4.611,5.254-6.476,12.368-5.053,19.213c3.153,15.24,12.85,28.483,27.572,53.318c14.901,25.137,38.965,63.343,46.09,64.014
					C197.2,341.547,206.857,344.238,210.856,341.547L210.856,341.547z"/>
			</g>
			<g>
				<path style="fill:#275CC7;" d="M154.328,243.091c4.866,9.486,10.571,18.541,16.524,27.376
					c6.418,9.523,13.206,18.803,20.324,27.816c3.569,4.519,7.227,8.97,11.019,13.305c0.408,0.466,1.085-0.215,0.679-0.679
					c-7.079-8.092-13.725-16.566-20.105-25.218c-6.75-9.154-13.212-18.538-19.171-28.228c-2.984-4.852-5.841-9.787-8.441-14.856
					C154.875,242.056,154.046,242.541,154.328,243.091L154.328,243.091z"/>
			</g>
			<path style="fill:#D4652D;" d="M163.273,240.192c0,0,16.003,23.472,26.886,26.459c10.882,2.987,25.179,0,25.179,0
				s9-2.808,12.288,9.478c0,0-31.492,18.474-47.283,11.006s-37.555-35.634-37.555-35.634L163.273,240.192z"/>
			<g>
				<path style="fill:#983B2D;" d="M185.964,264.941c-2.799,0.998-5.469,2.172-7.782,4.074c-0.448,0.368,0.192,1.002,0.636,0.636
					c2.189-1.8,4.736-2.898,7.385-3.843C186.745,265.616,186.511,264.746,185.964,264.941L185.964,264.941z"/>
			</g>
			<g>
				<path style="fill:#983B2D;" d="M179.758,265.644c2.051-0.121,4.089-0.06,6.129,0.181c0.574,0.068,0.569-0.833,0-0.9
					c-2.04-0.242-4.078-0.302-6.129-0.181C179.182,264.778,179.178,265.678,179.758,265.644L179.758,265.644z"/>
			</g>
			<path style="fill:#275CC7;" d="M125.095,227.507c-3.454-8.898,4.395-18.163,13.693-16.01c0.16,0.037,0.322,0.076,0.485,0.118
				c13.058,3.32,30.321,30.321,30.321,30.321s-12.394,15.935-27.001,14.607C142.593,256.544,131.288,243.462,125.095,227.507z"/>
			<g>
				<g>
					<path style="fill:#275CC7;" d="M187.218,242.269c-3.297,2.784-7.066,4.678-11.272,5.642c-0.938,0.215-0.673,1.69,0.27,1.474
						c4.447-1.02,8.479-3.023,11.965-5.967C188.918,242.794,187.955,241.646,187.218,242.269L187.218,242.269z"/>
				</g>
			</g>
			<g>
				<g>
					<path style="fill:#D4652D;" d="M145.635,176.478c1.59,2.743,2.543,4.967,2.353,6.116c-0.482,2.914-29.885,10.958-30.923,11.372
						c0,0-3.448-12.041-11.439-15.332c-7.991-3.291-9.682-15.154-1.871-23.92c7.813-8.761,19.894-5.034,24.774-0.462
						c2.955,2.768,9.721,11,14.446,18.018C143.975,173.749,144.875,175.17,145.635,176.478z"/>
				</g>
				<g>
					<path style="fill:#10283B;" d="M132.517,211.826c9.262-12.68,2.698-25.368-1.372-27.421c0,0-12.85-3.979-6.269-13.056
						c6.581-9.077,3.306-17.921-1.227-21.669c-1.372-1.135-3.831-1.585-6.592-1.661c-11.184-0.308-22.636,9.424-22.919,18.77
						c-0.049,1.613-0.343,3.934,0,5.548c2.278,10.714,4.481,15.15,12.57,29.22c0.102-0.011,0.21,0.024,0.307,0.124
						c1.399,1.454,2.295,3.286,3.077,5.125c0.902,2.122,1.729,4.237,2.745,6.312c4.382,8.95,9.102,17.705,13.883,26.447
						c2.372,4.336,4.744,8.672,7.001,13.07c1.141,2.223,2.246,4.463,3.325,6.717c0.055,0.115,0.11,0.231,0.165,0.347
						c4.444-1.612,8.532-4.987,11.529-10.369C154.501,238.983,123.255,224.506,132.517,211.826z"/>
				</g>
				<g>
					<g>
						<g>
							<g>
								<g>
									<g>
										<g>
											<g>
												<path style="fill:#D4652D;" d="M129.707,176.026c-0.508-2.025-1.993-3.658-3.9-4.509
													c-2.471-1.103-6.659-2.552-8.673-0.827c-2.961,2.535-1.493,5.673,0.714,8.411c2.207,2.739,6.614,5.353,10.272,2.129
													C129.948,179.618,130.123,177.684,129.707,176.026z"/>
											</g>
										</g>
									</g>
								</g>
							</g>
						</g>
					</g>
				</g>
				<g>
					<g>
						<g>
							<g>
								<g>
									<g>
										<g>
											<g>
												<g>
													<path style="fill:#10283B;" d="M125.065,178.217c-0.585-1.318-1.283-2.644-2.452-3.54
														c-1.045-0.8-3.141-1.606-4.215-0.348c-0.36,0.422-1.08-0.067-0.717-0.492c1.036-1.212,2.732-1.2,4.131-0.623
														c2.019,0.833,3.194,2.725,4.043,4.639C126.081,178.364,125.293,178.73,125.065,178.217L125.065,178.217z"/>
												</g>
											</g>
										</g>
									</g>
								</g>
							</g>
						</g>
					</g>
				</g>
				<g>
					<g>
						<g>
							<path style="fill:#10283B;" d="M136.318,164.984c0.445,0.684,0.481,1.449,0.082,1.708c-0.399,0.259-1.083-0.085-1.527-0.77
								c-0.445-0.684-0.481-1.449-0.082-1.708C135.19,163.956,135.874,164.3,136.318,164.984z"/>
						</g>
					</g>
				</g>
				<g>
					<g>
						<g>
							<g>
								<g>
									<g>
										<path style="fill:#983B2D;" d="M146.104,178.176c-0.731,0.92-1.722,1.571-2.933,1.355
											c-0.614-0.109-0.415-1.056,0.198-0.947c0.866,0.154,1.505-0.413,2.009-1.048
											C145.766,177.047,146.49,177.69,146.104,178.176L146.104,178.176z"/>
									</g>
								</g>
							</g>
						</g>
					</g>
				</g>
				<g>
					<g>
						<g>
							<g>
								<g>
									<path style="fill:#983B2D;" d="M131.795,172.268c0.443,0.677,1.855,0.537,3.154-0.313c1.299-0.85,1.994-2.088,1.551-2.765
										c-0.443-0.677-1.855-0.537-3.155,0.313C132.047,170.353,131.353,171.591,131.795,172.268z"/>
								</g>
							</g>
						</g>
					</g>
				</g>
				<g>
					<g>
						<g>
							<g>
								<g>
									<path style="fill:#FFFFFF;" d="M145.635,176.478c-0.09,0.066-0.18,0.132-0.277,0.196c-4.126,2.728-7.905-2.077-7.905-2.077
										c2.298-0.767,4.128-1.588,5.523-2.326C143.975,173.749,144.875,175.17,145.635,176.478z"/>
								</g>
							</g>
						</g>
					</g>
				</g>
				<g>
					<path style="fill:#D4652D;" d="M137.903,165.246c0,0,3.881,2.808,5.015,3.397c1.134,0.589-0.434,2.902-0.434,2.902
						L137.903,165.246z"/>
				</g>
				<g>
					<g>
						<g>
							<g>
								<g>
									<g>
										<g>
											<g>
												<path style="fill:#10283B;" d="M133.571,162.509c-1.07,0.217-2.124,1.093-1.886,2.296
													c0.222,1.123-1.495,1.662-1.72,0.525c-0.419-2.12,0.954-4.109,3.081-4.54
													C134.168,160.562,134.707,162.278,133.571,162.509L133.571,162.509z"/>
											</g>
										</g>
									</g>
								</g>
							</g>
						</g>
					</g>
				</g>
			</g>
			<g>
				
					<rect x="129.659" y="214.173" transform="matrix(0.8579 -0.5138 0.5138 0.8579 -108.9065 103.9005)" style="fill:#24318E;" width="7.468" height="69.348"/>
				<path style="fill:#275CC7;" d="M83.643,179.279l23.134,38.625c3.875,6.47,12.262,8.574,18.732,4.699l0,0l-37.168-62.056v0
					C81.871,164.422,79.767,172.809,83.643,179.279z"/>
				<path style="fill:#275CC7;" d="M388.96,347.15l-4.257,10.774L299.294,328.3c0,0-81.321,28.275-98.656,29.933
					c-8.597,0.822-18.871-14.804-18.871-14.804l-45.279-75.916l11.717-7.016l42.195,70.749c2.906,4.872,7.259,8.748,12.494,10.933
					c2.275,0.949,4.672,1.571,6.834,1.369c14.365-1.342,89.498-30.479,89.498-30.479L388.96,347.15z"/>
			</g>
			<g>
				<g>
					<g>
						<g>
							<path style="fill:#275CC7;" d="M289.699,379.897h-4.215c-2.064,0-3.737-1.673-3.737-3.737v-37.805h11.688v37.805
								C293.435,378.224,291.762,379.897,289.699,379.897z"/>
						</g>
					</g>
					<g>
						<g>
							<rect x="284.464" y="328.663" style="fill:#275CC7;" width="6.253" height="124.433"/>
						</g>
					</g>
				</g>
			</g>
		</g>
		<g>
			<g>
				<g>
					<g>
						<g>
							<g>
								<path style="fill:#10283B;" d="M328.11,389.053h-4.029c-2.064,0-3.737-1.673-3.737-3.737v-37.145h11.503v37.145
									C331.847,387.38,330.174,389.053,328.11,389.053z"/>
							</g>
						</g>
						<g>
							<g>
								<path style="fill:#10283B;" d="M360.229,435.736v7.303h-5.291v-3.3c0-0.931-0.755-1.685-1.685-1.685h-22.664
									c-0.782,0-1.417,0.634-1.417,1.417v3.568h-6.154v-3.568c0-0.783-0.634-1.417-1.417-1.417H299.11
									c-0.931,0-1.685,0.754-1.685,1.685v3.3h-5.291v-7.303c0-1.642,1.331-2.973,2.973-2.973h27.911v-94.13h6.154v94.13h28.083
									C358.898,432.763,360.229,434.094,360.229,435.736z"/>
							</g>
						</g>
					</g>
					<g>
						<g>
							<g>
								
									<ellipse transform="matrix(0.145 -0.9894 0.9894 0.145 -190.9272 674.5855)" style="fill:#10283B;" cx="294.852" cy="447.763" rx="7.879" ry="7.879"/>
							</g>
						</g>
						<g>
							<g>
								<path style="fill:#2E4970;" d="M294.852,452.276c-2.488,0-4.512-2.024-4.512-4.513c0-2.488,2.024-4.512,4.512-4.512
									c2.488,0,4.513,2.024,4.513,4.512C299.365,450.252,297.34,452.276,294.852,452.276z"/>
							</g>
						</g>
					</g>
					<g>
						<g>
							<g>
								<path style="fill:#10283B;" d="M334.061,447.763c0,4.352-3.528,7.879-7.879,7.879c-4.352,0-7.879-3.528-7.879-7.879
									c0-4.352,3.528-7.879,7.879-7.879C330.533,439.884,334.061,443.412,334.061,447.763z"/>
							</g>
						</g>
						<g>
							<g>
								<path style="fill:#2E4970;" d="M326.182,452.276c-2.488,0-4.512-2.024-4.512-4.513c0-2.488,2.024-4.512,4.512-4.512
									c2.488,0,4.512,2.024,4.512,4.512C330.694,450.252,328.67,452.276,326.182,452.276z"/>
							</g>
						</g>
					</g>
					<g>
						<g>
							<g>
								
									<ellipse transform="matrix(0.1598 -0.9872 0.9872 0.1598 -141.5324 729.2424)" style="fill:#10283B;" cx="357.622" cy="447.763" rx="7.879" ry="7.879"/>
							</g>
						</g>
						<g>
							<g>
								<path style="fill:#2E4970;" d="M357.622,452.276c-2.488,0-4.512-2.024-4.512-4.513c0-2.488,2.024-4.512,4.512-4.512
									c2.488,0,4.513,2.024,4.513,4.512C362.135,450.252,360.11,452.276,357.622,452.276z"/>
							</g>
						</g>
					</g>
				</g>
				<g>
					<g>
						<path style="fill:#10283B;" d="M375.524,349.085h-94.599c-4.871,0-8.819-3.948-8.819-8.819v-1.724
							c0-4.87,3.948-8.819,8.819-8.819h94.6c4.87,0,8.819,3.948,8.819,8.819v1.724C384.343,345.136,380.395,349.085,375.524,349.085
							z"/>
					</g>
				</g>
			</g>
			<g>
				<g>
					<g>
						<g>
							<g>
								<g>
									<path style="fill:#FD945C;" d="M276.92,226.038c0,0-31.787,42.634-49.4,39.396c-17.614-3.238-30.661-89.646-30.661-89.646
										l8.89-7.545l26.191,60.832l26.329-31.176L276.92,226.038z"/>
								</g>
							</g>
						</g>
						<g>
							<g>
								<g>
									<g>
										<path style="fill:#D4652D;" d="M232.37,228.651c1.61,4.208,2.116,8.671,1.462,13.13c-0.087,0.594-1.019,0.504-0.931-0.094
											c0.631-4.298,0.171-8.589-1.382-12.647C231.304,228.479,232.154,228.087,232.37,228.651L232.37,228.651z"/>
									</g>
								</g>
							</g>
						</g>
						<g>
							<g>
								<g>
									<g>
										<path style="fill:#D4652D;" d="M232.764,230.301c2.249,1.934,3.773,4.327,4.582,7.18c0.164,0.578-0.761,0.723-0.924,0.148
											c-0.734-2.586-2.16-4.81-4.197-6.563C231.771,230.676,232.307,229.908,232.764,230.301L232.764,230.301z"/>
									</g>
								</g>
							</g>
						</g>
						<g>
							<g>
								<g>
									<g>
										<path style="fill:#5A91FF;" d="M202.239,170.458c0,0,5.785-2.031,2.833-7.438c-2.051-3.756-0.4-13.354-1.216-14.684
											c-1.44-2.344-4.601,1.137-4.542,8.393c0,0-10.772-3.524-13.221-1.879c-2.45,1.645-0.801,4.37-0.801,4.37
											s-2.938,0.885-3.41,3.044c-0.472,2.16,1.596,3.576,1.596,3.576s-2.146,0.326-2.228,2.261
											c-0.082,1.934,2.762,3.074,2.762,3.074s-2.407-0.214-2.185,1.827c0.222,2.042,2.491,3.984,10.9,4.146
											C201.135,177.31,202.239,170.458,202.239,170.458z"/>
									</g>
								</g>
							</g>
							<g>
								<g>
									<g>
										<g>
											<path style="fill:#24318E;" d="M188.991,171.931c-1.085-0.215-2.17-0.43-3.255-0.646
												c-0.548-0.109-0.447-0.978,0.107-0.868c1.085,0.215,2.17,0.43,3.255,0.646
												C189.646,171.172,189.545,172.041,188.991,171.931L188.991,171.931z"/>
										</g>
									</g>
								</g>
							</g>
							<g>
								<g>
									<g>
										<g>
											<path style="fill:#24318E;" d="M195.69,157.274c1.371,2.467-0.508,4.889-3.203,4.819c0.072-0.28,0.144-0.56,0.217-0.839
												c1.577,0.622,2.464,2.258,1.874,3.911c-0.627,1.755-2.479,2.465-4.201,2.07c0.105-0.262,0.209-0.523,0.314-0.785
												c2.518,1.647,1.808,5.836-1.549,5.474c0.132-0.236,0.263-0.471,0.395-0.707c1.01,0.996,1.707,2.391,1.187,3.816
												c-0.437,1.199-1.64,1.823-2.862,1.529c-0.54-0.13-0.441-0.999,0.107-0.868c1.25,0.3,2.148-0.655,2.049-1.88
												c-0.068-0.845-0.591-1.486-1.164-2.052c-0.286-0.282,0.048-0.744,0.395-0.707c2.558,0.276,2.637-2.782,0.921-3.905
												c-0.352-0.23-0.113-0.883,0.314-0.785c1.078,0.247,2.258,0.065,2.951-0.89c0.898-1.24,0.32-2.869-1.057-3.412
												c-0.486-0.192-0.258-0.852,0.217-0.839c2.066,0.054,3.309-1.775,2.296-3.598
												C194.617,157.135,195.419,156.786,195.69,157.274L195.69,157.274z"/>
										</g>
									</g>
								</g>
							</g>
							<g>
								<g>
									<g>
										<g>
											<path style="fill:#24318E;" d="M192.952,162.357c-1.586-0.74-3.211-1.378-4.876-1.916
												c-0.535-0.173-0.208-0.984,0.326-0.811c1.666,0.538,3.29,1.177,4.877,1.917
												C193.787,161.783,193.464,162.596,192.952,162.357L192.952,162.357z"/>
										</g>
									</g>
								</g>
							</g>
							<g>
								<g>
									<g>
										<g>
											<path style="fill:#24318E;" d="M190.52,167.34c-1.418-0.53-2.836-1.06-4.255-1.591c-0.527-0.197-0.202-1.008,0.326-0.811
												c1.418,0.53,2.837,1.06,4.255,1.591C191.373,166.726,191.048,167.537,190.52,167.34L190.52,167.34z"/>
										</g>
									</g>
								</g>
							</g>
							<g>
								<path style="fill:#5A91FF;" d="M195.977,174.981l4.132,26.687c7.474,0.425,12.599-2.923,18.205-7.899l-12.407-28.006
									L195.977,174.981z"/>
							</g>
							<g>
								<g>
									<path style="fill:#24318E;" d="M200.034,198.016c5.865-0.58,11.318-3.278,15.31-7.62c0.32-0.348-0.199-0.87-0.521-0.521
										c-3.854,4.192-9.118,6.844-14.789,7.404C199.566,197.325,199.562,198.062,200.034,198.016L200.034,198.016z"/>
								</g>
							</g>
							<g>
								<g>
									<g>
										<g>
											<path style="fill:#24318E;" d="M197.295,170.555c-1.078,0.051-2.031,0.418-2.854,1.12
												c-0.429,0.366-0.974-0.318-0.547-0.682c0.927-0.79,2.055-1.245,3.273-1.302
												C197.724,169.663,197.858,170.528,197.295,170.555L197.295,170.555z"/>
										</g>
									</g>
								</g>
							</g>
							<g>
								<g>
									<g>
										<g>
											<path style="fill:#24318E;" d="M195.716,164.387c0.473,3.697,2.791,6.853,6.194,8.386
												c0.511,0.23,0.189,1.043-0.326,0.811c-3.68-1.658-6.22-5.06-6.732-9.069C194.78,163.957,195.644,163.828,195.716,164.387
												L195.716,164.387z"/>
										</g>
									</g>
								</g>
							</g>
						</g>
						<g>
							
								<rect x="186.985" y="157.543" transform="matrix(0.5578 -0.83 0.83 0.5578 -44.6455 234.6585)" style="fill:#10283B;" width="21.803" height="3.364"/>
							<path style="fill:#275CC7;" d="M208.638,142.842l0.356,0.239c1.005,0.675,1.272,2.038,0.597,3.043l-5.965,8.876
								c-0.197,0.293-0.595,0.371-0.888,0.174l-2.933-1.971c-0.293-0.197-0.371-0.595-0.174-0.888l5.965-8.876
								C206.271,142.433,207.633,142.166,208.638,142.842z"/>
							
								<rect x="181.387" y="172.232" transform="matrix(0.5577 -0.83 0.83 0.5577 -60.1278 233.0866)" style="fill:#10283B;" width="14.533" height="1.465"/>
							<path style="fill:#275CC7;" d="M176.408,178.788c2.13-3.17,6.427-4.013,9.597-1.883c3.17,2.13,4.013,6.427,1.882,9.597
								c-2.13,3.17-6.427,4.013-9.597,1.882C175.12,186.254,174.277,181.958,176.408,178.788z"/>
							<path style="fill:#DAEEFD;" d="M177.443,179.641c1.719-2.558,5.185-3.237,7.743-1.519c0.22,0.148,0.426,0.309,0.618,0.482
								c0.313,0.28,0.589,0.591,0.825,0.924c0.518,0.731,0.846,1.572,0.97,2.444c0.113,0.793,0.056,1.613-0.183,2.399
								c-0.156,0.518-0.392,1.022-0.71,1.494c-1.718,2.557-5.185,3.237-7.743,1.518c-0.473-0.318-0.881-0.694-1.221-1.115
								c-0.519-0.637-0.881-1.373-1.076-2.152c-0.216-0.853-0.229-1.755-0.027-2.629c0.093-0.398,0.23-0.79,0.414-1.168
								C177.165,180.089,177.295,179.862,177.443,179.641z"/>
						</g>
						<g>
							<path style="fill:#5A91FF;" d="M191.849,154.809c0,0,7.35,1.246,8.009,3.306c0.574,1.794-0.879,3.902-4.016,3.52
								c-3.138-0.381-6.837-1.806-6.837-1.806L191.849,154.809z"/>
						</g>
						<g>
							<path style="fill:#5A91FF;" d="M188.657,160.752c0,0,5.325,0.69,6.19,2.363c0.865,1.673-1.009,4.433-4.001,3.414
								c-3.022-1.029-4.534-1.639-4.534-1.639L188.657,160.752z"/>
						</g>
					</g>
					<g>
						<g>
							<path style="fill:#275CC7;" d="M281.29,234.6c-3.47,2.9-8,6.07-11.26,8.27c-0.21,0.14-0.42,0.28-0.61,0.41
								c-2.14,1.43-3.59,2.36-3.59,2.36c-8.02-6.89-20.122-35.432-20.122-35.432c13.54-15.7,21.772-31.708,21.772-31.708
								S294.18,223.84,281.29,234.6z"/>
						</g>
						<g>
							<g>
								<path style="fill:#FFFFFF;" d="M270.03,242.87c-0.21,0.14-0.42,0.28-0.61,0.41c-7.76-11.41-14.58-23.4-21-35.62
									c-0.22-0.42,0.41-0.79,0.63-0.37C255.47,219.49,262.29,231.46,270.03,242.87z"/>
							</g>
						</g>
					</g>
				</g>
				<g>
					<g>
						<path style="fill:#275CC7;" d="M289.321,154.484c0,0-14.138,11.1-19.816,19.84c-5.241,8.069-1.561,11.107,3.84,47.543
							c5.4,36.437-1.916,57.676-5.416,77.146c-3.923,21.823-12.683,17.195,23.994,19.928c18.439,1.374,66.855-3.709,74.219-7.402
							c7.364-3.693-6.31-81.405-7.292-99.143c-0.982-17.739,2.552-37.433-8.248-47.021c-10.801-9.589-39.89-16.8-39.89-16.8
							L289.321,154.484z"/>
						<g>
							<path style="fill:#24318E;" d="M273.573,266.425c-0.685,4.854-1.351,9.715-2.716,14.434
								c-0.161,0.557,0.707,0.796,0.868,0.239c1.365-4.72,2.031-9.58,2.716-14.434C274.521,266.098,273.654,265.853,273.573,266.425
								L273.573,266.425z"/>
						</g>
					</g>
					<polygon style="fill:#FFFFFF;" points="276.955,205.867 277.596,213.498 293.628,213.498 292.895,205.867 					"/>
					<g>
						<path style="fill:#FFFFFF;" d="M283.271,159.375c-1.384,8.028,3.969,15.856,12.044,17.26
							c8.012,1.393,15.058-4.144,18.66-10.883c2.452-4.586,3.624-9.707,4.547-14.786c0.069-0.379-0.512-0.542-0.581-0.16
							c-1.417,7.802-3.574,16.093-9.877,21.433c-2.836,2.402-6.409,4.022-10.169,4.022c-3.904,0-7.788-1.645-10.459-4.503
							c-3.027-3.239-4.335-7.873-3.585-12.223C283.918,159.156,283.337,158.993,283.271,159.375L283.271,159.375z"/>
					</g>
					<g>
						<path style="fill:#24318E;" d="M319.051,178.571c3.859-9.875,12.923-15.775,23.514-15.484c0.711,0.02,0.711-1.085,0-1.105
							c-11.096-0.305-20.543,5.966-24.579,16.295C317.727,178.939,318.795,179.227,319.051,178.571L319.051,178.571z"/>
					</g>
					<g>
						<g>
							<path style="fill:#24318E;" d="M286.402,188.529c7.616,3.233,16.802,1.491,22.65-4.388c0.502-0.505-0.279-1.286-0.781-0.781
								c-5.467,5.495-14.159,7.252-21.312,4.215C286.313,187.301,285.75,188.252,286.402,188.529L286.402,188.529z"/>
						</g>
					</g>
					<g>
						<g>
							<path style="fill:#24318E;" d="M289.09,270.012c11.932,12.1,27.516,20.373,44.23,23.454c0.695,0.128,0.993-0.936,0.294-1.065
								c-16.54-3.049-31.933-11.194-43.743-23.17C289.371,268.724,288.59,269.505,289.09,270.012L289.09,270.012z"/>
						</g>
					</g>
					<g>
						<g>
							<path style="fill:#24318E;" d="M269.474,198.343c2.402,14.031,4.078,28.178,5.025,42.382c0.047,0.706,1.152,0.711,1.105,0
								c-0.953-14.302-2.645-28.547-5.064-42.675C270.419,197.35,269.354,197.647,269.474,198.343L269.474,198.343z"/>
						</g>
					</g>
				</g>
				<g>
					<g>
						<path style="fill:#10283B;" d="M275.191,127.811c0,0-2.411-2.48-4.242-8.498s-6.541-5.756-6.279-8.634
							c0.262-2.878,4.186-2.878,4.186-2.878s-4.971-6.541-0.785-9.419c4.186-2.878,7.587,0,7.587,0s0.262-5.494,5.494-4.448
							c5.233,1.047,5.494,3.924,5.494,3.924s4.651-2.45,7.587-1.308c4.709,1.832,3.924,4.971,3.924,4.971s6.99-1.468,8.372,3.14
							c0.785,2.616-1.046,6.018-1.046,6.018L275.191,127.811z"/>
						<g>
							<g>
								<g>
									<g>
										<g>
											<g>
												<g>
													<path style="fill:#FD945C;" d="M312.312,149.294c0,0-8.7,16.11-23.531,9.737l-0.224-9.928l-0.351-6.602l-0.247-4.622
														l15.995-8.783C305.841,137.183,308.704,143.798,312.312,149.294z"/>
												</g>
											</g>
										</g>
									</g>
								</g>
							</g>
							<g>
								<path style="fill:#FD945C;" d="M288.781,159.03c-0.004,0.042-0.007,0.084-0.011,0.126
									c-0.599,6.908,7.547,10.964,12.715,6.342c3.819-3.415,8.184-8.662,10.826-16.205L288.781,159.03z"/>
							</g>
							<g>
								<g>
									<g>
										<g>
											<g>
												<g>
													<path style="fill:#10283B;" d="M302.122,136.768c-4.491,11.639-10.896,15.017-13.426,14.866l-0.489-9.133
														L302.122,136.768z"/>
												</g>
											</g>
										</g>
									</g>
								</g>
							</g>
						</g>
						<g>
							<g>
								<g>
									<g>
										<g>
											<g>
												<g>
													<path style="fill:#FD945C;" d="M304.208,123.802c0.178,0.706,0.305,1.369,0.384,2.008
														c0.183,1.478,0.113,2.827-0.183,4.272c-0.39,1.903-1.168,3.979-2.27,6.734c-1.732,4.327-5.815,6.892-10.117,8.063
														c-11.426,3.111-14.561-4.403-16.791-16.428c-1.383-7.467-4.537-10.964-3.477-14.296l0.003-0.001
														c0.087-0.164,0.178-0.326,0.27-0.485c2.183-3.806,5.83-6.564,10.045-7.795c0.813-0.236,1.596-0.437,2.355-0.603
														c0.171-0.043,0.343-0.079,0.513-0.111c0.07-0.018,0.141-0.032,0.21-0.042c0.193-0.041,0.383-0.079,0.574-0.109
														c0.136-0.027,0.272-0.05,0.406-0.07c0.311-0.053,0.613-0.097,0.909-0.136c9.478-1.215,13.252,3.739,15.053,9.146
														C303.32,117.624,303.631,121.508,304.208,123.802z"/>
												</g>
											</g>
										</g>
									</g>
								</g>
							</g>
							<g>
								<g>
									<g>
										<path style="fill:#10283B;" d="M282.975,131.663c-0.003,0.001-0.006,0.002-0.009,0.002
											c-0.78,0.184-2.392,0.144-2.917-1.324c-0.496-1.388,0.504-2.407,1.268-2.861l0.035-2.075
											c0.004-0.243,0.204-0.436,0.448-0.433c0.243,0.004,0.437,0.205,0.433,0.448l-0.04,2.333
											c-0.003,0.168-0.101,0.32-0.253,0.391c-0.06,0.028-1.483,0.723-1.062,1.899c0.394,1.102,1.824,0.778,1.885,0.764
											c0.237-0.055,0.474,0.091,0.53,0.327C283.348,131.369,283.206,131.603,282.975,131.663z"/>
									</g>
								</g>
							</g>
							<g>
								<g>
									<g>
										<g>
											<g>
												<g>
													<path style="fill:#10283B;" d="M284.755,124.283c0.226,0.6,0.775,0.95,1.225,0.78c0.45-0.17,0.632-0.794,0.406-1.395
														c-0.226-0.6-0.775-0.95-1.225-0.78C284.71,123.058,284.529,123.683,284.755,124.283z"/>
												</g>
											</g>
										</g>
									</g>
								</g>
							</g>
							<g>
								<g>
									<g>
										<g>
											<g>
												<g>
													<path style="fill:#10283B;" d="M277.327,126.451c0.226,0.601,0.775,0.95,1.225,0.78c0.45-0.17,0.632-0.794,0.406-1.395
														c-0.227-0.601-0.775-0.95-1.225-0.78C277.282,125.226,277.101,125.851,277.327,126.451z"/>
												</g>
											</g>
										</g>
									</g>
								</g>
							</g>
							<g>
								<g>
									<g>
										<g>
											<g>
												<g>
													<path style="fill:#D4652D;" d="M291.928,125.984c0.158,0.63-0.693,1.387-1.902,1.691
														c-1.209,0.304-2.317,0.04-2.475-0.59c-0.159-0.63,0.693-1.387,1.902-1.691
														C290.661,125.09,291.769,125.354,291.928,125.984z"/>
												</g>
											</g>
										</g>
									</g>
								</g>
							</g>
							<g>
								<g>
									<g>
										<g>
											<g>
												<g>
													<path style="fill:#D4652D;" d="M275.834,131.464c0.47,0.167,1.135,0.18,1.833,0.005c1.207-0.303,2.059-1.06,1.9-1.691
														c-0.158-0.629-1.267-0.892-2.474-0.588c-0.665,0.167-1.222,0.472-1.563,0.818L275.834,131.464z"/>
												</g>
											</g>
										</g>
									</g>
								</g>
							</g>
							<g>
								<g>
									<g>
										<g>
											<g>
												<g>
													<g>
														<path style="fill:#10283B;" d="M284.46,120.655c0.641-0.45,1.678-0.663,2.208,0.086
															c0.322,0.455,0.892,0.689,1.412,0.391c0.448-0.256,0.717-0.951,0.391-1.412c-1.156-1.632-3.372-2.033-5.033-0.868
															c-0.456,0.32-0.688,0.893-0.391,1.412C283.305,120.714,283.998,120.979,284.46,120.655L284.46,120.655z"/>
													</g>
												</g>
											</g>
										</g>
									</g>
								</g>
							</g>
							<g>
								<g>
									<g>
										<g>
											<g>
												<g>
													<g>
														<path style="fill:#10283B;" d="M276.244,123.604c0.404-0.829,0.971-1.289,1.922-1.282
															c1.334,0.009,1.381-2.063,0.047-2.072c-1.64-0.011-3.025,0.809-3.747,2.291
															C273.885,123.732,275.658,124.805,276.244,123.604L276.244,123.604z"/>
													</g>
												</g>
											</g>
										</g>
									</g>
								</g>
							</g>
						</g>
						<g>
							<g>
								<g>
									<g>
										<g>
											<g>
												<path style="fill:#10283B;" d="M300.902,128.069c1.627-0.384,2.839-1.198,3.69-2.259
													c0.183,1.478,0.113,2.827-0.183,4.272C303.126,129.806,301.931,129.177,300.902,128.069z"/>
											</g>
										</g>
									</g>
								</g>
							</g>
						</g>
						<g>
							<g>
								<g>
									<g>
										<g>
											<g>
												<path style="fill:#10283B;" d="M299.498,114.516c-4.254,2.394-2.75,10.304-5.431,9.554
													c-2.681-0.75-1.527-14.569-7.47-12.719c-5.943,1.85-4.909,2.804-7.616,3.695c-4.604,1.514-5.193-0.83-7.224-0.893
													c0.087-0.164,0.178-0.326,0.27-0.485c2.183-3.806,5.83-6.564,10.045-7.795c0.813-0.236,1.596-0.437,2.355-0.603
													c0.171-0.043,0.343-0.079,0.513-0.111c0.07-0.018,0.141-0.032,0.21-0.042c0.193-0.041,0.383-0.079,0.574-0.109
													c0.136-0.027,0.272-0.05,0.406-0.07c0.306-0.056,0.612-0.101,0.909-0.136c9.478-1.215,13.252,3.739,15.053,9.146
													C301.305,113.83,300.43,113.989,299.498,114.516z"/>
											</g>
										</g>
									</g>
								</g>
							</g>
						</g>
						<g>
							<g>
								<g>
									<g>
										<g>
											<g>
												<path style="fill:#D4652D;" d="M294.069,124.07c2.68,0.749,1.173-7.159,5.429-9.554
													c0.933-0.526,1.807-0.687,2.595-0.567c1.225,3.675,1.537,7.56,2.114,9.854c0.173,0.688,0.299,1.334,0.377,1.957
													c0.562-5.196,1.119-11.299,0.93-13.769c-0.037-0.499-0.11-0.959-0.214-1.385c-0.137-0.09-0.274-0.177-0.415-0.256
													c-0.608-0.358-1.253-0.629-1.923-0.831c-1.059-0.314-2.188-0.447-3.334-0.443c-3.723,0.002-7.681,1.42-10.422,2.657
													C292.247,114.11,291.876,123.454,294.069,124.07z"/>
											</g>
										</g>
									</g>
								</g>
							</g>
						</g>
						<g>
							<g>
								<g>
									<g>
										<g>
											<g>
												<path style="fill:#FFFFFF;" d="M280.666,133.171c0,0,2.615-0.969,7.762-2.842c0,0,1.085,5.776-2.771,6.722
													C282.386,137.854,280.666,133.171,280.666,133.171z"/>
											</g>
										</g>
									</g>
								</g>
							</g>
						</g>
						<g>
							<g>
								<g>
									<g>
										<g>
											<g>
												<g>
													<path style="fill:#D4652D;" d="M285.656,139.414c0.941,0.07,1.864-0.161,2.397-0.993
														c0.27-0.422-0.397-0.82-0.667-0.399c-0.38,0.595-1.063,0.663-1.712,0.615
														C285.174,138.6,285.159,139.377,285.656,139.414L285.656,139.414z"/>
												</g>
											</g>
										</g>
									</g>
								</g>
							</g>
						</g>
						<g>
							<g>
								<g>
									<g>
										<g>
											<g>
												<g>
													<path style="fill:#FD945C;" d="M296.545,126.145c-1.082-1.688-1.249-3.801-0.592-5.696
														c0.85-2.454,2.584-6.337,5.111-6.611c3.713-0.403,4.943,2.689,5.409,6.036c0.466,3.346-0.598,8.149-5.249,8.586
														C298.898,128.678,297.431,127.527,296.545,126.145z"/>
												</g>
											</g>
										</g>
									</g>
								</g>
							</g>
						</g>
						<g>
							<g>
								<g>
									<g>
										<g>
											<g>
												<g>
													<g>
														<path style="fill:#10283B;" d="M300.673,124.493c-0.52-1.319-0.966-2.723-0.787-4.16
															c0.16-1.284,1.043-3.308,2.665-3.192c0.544,0.039,0.698-0.803,0.15-0.842c-1.563-0.111-2.726,1.085-3.287,2.463
															c-0.81,1.988-0.296,4.118,0.459,6.034C300.075,125.306,300.876,125.007,300.673,124.493L300.673,124.493z"/>
													</g>
												</g>
											</g>
										</g>
									</g>
								</g>
							</g>
						</g>
					</g>
					<g>
						<g>
							<g>
								<path style="fill:#FFFFFF;" d="M296.822,141.136c-0.006,0.204-0.061,0.427-0.164,0.643l-0.058,0.122l-0.01,0.004
									c-0.985,1.87-5.082,3.873-10.108,3.813c-6.285-0.06-7.795-3.973-8.576-5.089c-0.639-0.908-1.852-3.926-2.138-6.017
									c-0.147-1.072-0.051-1.905,0.491-2.087c3.312-1.149,2.662-5.078,5.706-3.545c1.761,0.9,5.39,1.144,6.991,1.281
									c0.288,0.021,0.551,0.096,0.812,0.227c0.697,0.313,1.217,0.982,1.358,1.786
									C292.144,138.332,296.893,139.289,296.822,141.136z"/>
							</g>
						</g>
						<g>
							<g>
								<path style="fill:#FFFFFF;" d="M302.66,128.897c0.197,2.19-0.255,4.387-1.295,6.321c-1.324,2.463-3.206,5.632-4.645,6.607
									c-0.046,0.028-0.083,0.052-0.119,0.076l-0.01,0.004c-2.341,1.41-7.492,0.023-6.95-9.853
									c0.033-0.507,0.076-1.016,0.127-1.564c0.009-0.07,0.024-0.155,0.029-0.235c0,0,3.56-6.748,6.675-10.841l-1.428,3.872
									c0,0-3.585,5.419-3.189,9.393c0.419,4.101,3.497,6.42,3.497,6.42C296.946,139.563,301.592,134.53,302.66,128.897z"/>
							</g>
						</g>
						<g>
							<path style="fill:#9BC4ED;" d="M296.589,141.459c-0.046,0.027-0.081,0.05-0.117,0.074l-0.01,0.004
								c-0.983,1.79-5.01,3.74-9.923,3.737c-6.144,0.01-7.579-3.697-8.33-4.75c-0.615-0.856-1.769-3.716-2.026-5.702
								c0.388-0.149,0.818-0.367,1.214-0.711c2.275-1.942,2.469-3.439,3.791-3.262c1.214,0.153,5.64,2.162,8.586,1.387
								c0.232-0.061,0.457-0.142,0.675-0.241c0.02-0.007,0.043-0.005,0.049-0.017c0,0,0.01,0.028,0.017,0.079
								c0,0,0.013,0.006,0.007,0.019c0.095,0.328,0.414,1.376,0.959,2.684c0.181,0.415,0.363,0.861,0.59,1.313
								c0.033,0.063,0.067,0.125,0.091,0.191c1.462,2.919,2.976,4.254,4.368,5.153C296.556,141.428,296.572,141.443,296.589,141.459
								z"/>
						</g>
						<g>
							<g>
								<path style="fill:#7FAFE1;" d="M284.045,134.727c-1.137,0.468-2.305,0.727-3.534,0.772c-0.408,0.015-0.391-0.62,0.017-0.635
									c1.109-0.041,2.179-0.268,3.206-0.691C284.107,134.019,284.422,134.572,284.045,134.727L284.045,134.727z"/>
							</g>
						</g>
						<g>
							<g>
								<path style="fill:#7FAFE1;" d="M287.611,136.52c-2.7,1.289-5.541,1.795-8.519,1.51c-0.404-0.039-0.392-0.674,0.017-0.635
									c2.868,0.275,5.59-0.186,8.191-1.428C287.667,135.791,287.98,136.344,287.611,136.52L287.611,136.52z"/>
							</g>
						</g>
						<g>
							<g>
								<path style="fill:#7FAFE1;" d="M289.031,138.974c-2.779,1.33-5.704,1.849-8.77,1.55c-0.404-0.039-0.392-0.675,0.017-0.635
									c2.956,0.288,5.762-0.186,8.442-1.469C289.088,138.244,289.401,138.797,289.031,138.974L289.031,138.974z"/>
							</g>
						</g>
						<g>
							<g>
								<path style="fill:#7FAFE1;" d="M290.397,141.766c-2.79,1.514-5.763,1.942-8.883,1.39c-0.402-0.071-0.22-0.68,0.179-0.61
									c2.941,0.521,5.761,0.093,8.392-1.335C290.445,141.017,290.757,141.571,290.397,141.766L290.397,141.766z"/>
							</g>
						</g>
					</g>
				</g>
				<g>
					<g>
						<path style="fill:#FFFFFF;" d="M350.605,215.576c3.139,24.597,4.882,49.368,5.192,74.162
							c0.088,7.026,0.059,14.053-0.079,21.079c-0.009,0.474,0.727,0.474,0.736,0c0.488-24.791-0.432-49.606-2.778-74.292
							c-0.665-6.995-1.446-13.979-2.336-20.949C351.282,215.113,350.545,215.107,350.605,215.576L350.605,215.576z"/>
					</g>
				</g>
				<g>
					<g>
						<g>
							<g>
								<g>
									<path style="fill:#FD945C;" d="M350.602,194.901c0,0-11.794,61.064-16.107,66.671c-10.769,14-91.262,0.554-91.262,0.554
										l0.889-11.231l66.964-10.4l8.178-40.604C331.457,190.397,350.602,194.901,350.602,194.901z"/>
								</g>
							</g>
						</g>
						<g>
							<path style="fill:#5A91FF;" d="M269.306,267.289l-26.361-1.704l0.211-15.813l25.675-5.269
								C268.83,244.503,274.034,261.147,269.306,267.289z"/>
						</g>
						<path style="fill:#5A91FF;" d="M243.155,249.772c0,0-11.916,1.055-14.106,1.76c-3.677,1.183-6.531,5.603-5.7,6.801
							c0.831,1.198,4.689-2.437,4.689-2.437s-14.06,9.496-13.814,11.393c0.369,2.849,10.071-3.38,10.071-3.38
							s-9.792,6.791-9.278,8.189c0.92,2.506,11.583-4.509,11.583-4.509s-15.546,12.836-0.321,5.386c0,0-7.693,8.228,0.628,3.814
							c2.497-1.325,16.038-11.204,16.038-11.204L243.155,249.772z"/>
						<g>
							<path style="fill:#24318E;" d="M224.887,258.404c1.919-1.791,3.993-3.257,6.438-4.247c0.542-0.219,0.305-1.11-0.245-0.888
								c-2.599,1.052-4.803,2.579-6.844,4.483C223.802,258.159,224.454,258.808,224.887,258.404L224.887,258.404z"/>
						</g>
						<g>
							<g>
								<path style="fill:#24318E;" d="M265.051,246.145c3.063,6.276,3.51,13.576,1.283,20.189
									c-0.151,0.449,0.565,0.621,0.716,0.174c2.289-6.8,1.779-14.295-1.365-20.739
									C265.477,245.343,264.845,245.722,265.051,246.145L265.051,246.145z"/>
							</g>
						</g>
						<g>
							<g>
								<g>
									<path style="fill:#D4652D;" d="M311.682,240.217c3.359,2.568,6.342,5.537,8.941,8.87c0.37,0.475-0.418,0.979-0.786,0.508
										c-2.55-3.27-5.491-6.167-8.784-8.685C310.575,240.544,311.207,239.854,311.682,240.217L311.682,240.217z"/>
								</g>
							</g>
						</g>
						<g>
							<g>
								<g>
									<g>
										<path style="fill:#D4652D;" d="M312.688,240.973c2.098-0.172,4.142,0.236,6.02,1.187c0.538,0.272,0.105,1.102-0.432,0.829
											c-1.743-0.883-3.608-1.241-5.554-1.082C312.122,241.957,312.088,241.022,312.688,240.973L312.688,240.973z"/>
									</g>
								</g>
							</g>
						</g>
					</g>
					<g>
						<path style="fill:#275CC7;" d="M356.481,179.74c0,0-5.012,39.755-10.097,55.495c0,0-29.171-2.11-36.136-9.333
							c0,0,0.127-30.113,5.707-37.882C323.437,177.603,347.898,172.833,356.481,179.74z"/>
					</g>
					<g>
						<g>
							<path style="fill:#24318E;" d="M353.405,197.332c-1.769,12.119-4,24.167-6.698,36.113c-0.154,0.684,0.882,1.069,1.039,0.375
								c2.719-12.039,4.977-24.176,6.759-36.389C354.608,196.726,353.507,196.63,353.405,197.332L353.405,197.332z"/>
						</g>
					</g>
					<g>
						<g>
							<path style="fill:#24318E;" d="M312.32,186.701c-0.446,12.239-1.36,24.458-2.748,36.626
								c-0.079,0.697,0.993,0.967,1.074,0.261c1.399-12.262,2.33-24.573,2.779-36.907
								C313.45,185.969,312.346,185.992,312.32,186.701L312.32,186.701z"/>
						</g>
					</g>
					<g>
						<g>
							<path style="fill:#24318E;" d="M309.265,194.078c0.971,1.035,1.787,2.168,2.473,3.409c0.345,0.624,1.294,0.058,0.951-0.563
								c-0.733-1.327-1.62-2.536-2.657-3.641C309.545,192.763,308.779,193.56,309.265,194.078L309.265,194.078z"/>
						</g>
					</g>
					<g>
						<g>
							<path style="fill:#FFFFFF;" d="M312.512,223.937c5.444,1.735,11.077,2.891,16.715,3.788
								c5.536,0.881,11.148,1.522,16.759,1.575c0.475,0.005,0.46-0.732-0.014-0.736c-5.683-0.054-11.362-0.713-16.968-1.618
								c-5.504-0.89-11.002-2.03-16.319-3.725C312.234,223.077,312.062,223.793,312.512,223.937L312.512,223.937z"/>
						</g>
					</g>
				</g>
				<g>
					<g>
						<polygon style="fill:#FD945C;" points="189.035,408.655 183.29,436.603 199.309,434.648 209.525,410.343 						"/>
					</g>
					<g>
						<polygon style="fill:#24318E;" points="213.223,295.537 176.54,420.505 212.092,421.917 262.405,316.33 						"/>
					</g>
					<g>
						<path style="fill:#275CC7;" d="M208.643,412.979c-0.074,0-0.149-0.015-0.221-0.048c-0.27-0.122-0.39-0.441-0.268-0.711
							l0.806-1.782c0.123-0.271,0.441-0.389,0.711-0.268c0.27,0.122,0.39,0.441,0.268,0.711l-0.806,1.782
							C209.043,412.862,208.847,412.979,208.643,412.979z M211.368,406.954c-0.074,0-0.149-0.016-0.221-0.048
							c-0.27-0.122-0.39-0.44-0.268-0.711l1.919-4.243c0.122-0.271,0.442-0.39,0.711-0.268c0.27,0.122,0.391,0.44,0.268,0.711
							l-1.919,4.243C211.768,406.837,211.572,406.954,211.368,406.954z M215.206,398.467c-0.074,0-0.15-0.015-0.221-0.048
							c-0.27-0.122-0.391-0.44-0.268-0.711l1.919-4.243c0.122-0.271,0.441-0.389,0.711-0.268c0.271,0.123,0.391,0.441,0.268,0.711
							l-1.919,4.243C215.606,398.35,215.411,398.467,215.206,398.467z M219.044,389.981c-0.074,0-0.15-0.016-0.221-0.048
							c-0.271-0.122-0.391-0.441-0.268-0.711l1.919-4.243c0.122-0.271,0.441-0.389,0.711-0.268c0.27,0.122,0.39,0.441,0.268,0.711
							l-1.919,4.243C219.444,389.864,219.249,389.981,219.044,389.981z M222.882,381.494c-0.074,0-0.149-0.015-0.221-0.048
							c-0.27-0.122-0.391-0.441-0.268-0.711l1.919-4.243c0.122-0.271,0.441-0.391,0.711-0.268c0.27,0.122,0.39,0.44,0.268,0.711
							l-1.919,4.243C223.283,381.377,223.087,381.494,222.882,381.494z M226.72,373.008c-0.074,0-0.149-0.015-0.221-0.048
							c-0.27-0.122-0.39-0.441-0.268-0.711l1.92-4.243c0.122-0.271,0.441-0.389,0.711-0.268c0.27,0.122,0.39,0.441,0.268,0.711
							l-1.919,4.243C227.121,372.891,226.925,373.008,226.72,373.008z"/>
					</g>
					<g>
						<polygon style="fill:#275CC7;" points="177.69,411.776 174.151,423.359 213.394,424.672 218.695,413.089 						"/>
					</g>
					<g>
						<g>
							<g>
								<g>
									<path style="fill:#FFFFFF;" d="M201.405,433.6c-0.236,2.407-1.444,13.52-2.038,18.986
										c-0.201,1.852-0.333,3.056-0.333,3.056h-52.152c0.219-1.121,0.473-2.139,0.767-3.056c1.874-5.889,5.191-7.734,8.913-7.967
										c4.299-0.269,20.226-5.374,20.226-5.374s-0.319-4.911,2.619-5.889c2.938-0.978,9.414,1.985,9.414,1.985l7.795-0.935
										C196.616,434.407,201.724,430.373,201.405,433.6z"/>
								</g>
							</g>
						</g>
						<g>
							<path style="fill:#24318E;" d="M199.367,452.587c-0.201,1.852-0.333,3.056-0.333,3.056h-52.152
								c0.219-1.121,0.473-2.139,0.767-3.056H199.367z"/>
						</g>
						<g>
							<g>
								<g>
									<g>
										<path style="fill:#24318E;" d="M200.356,440.741c-3.935,2.225-6.215,6.666-4.243,11.011
											c0.213,0.469-0.482,0.88-0.696,0.407c-2.156-4.75,0.179-9.653,4.532-12.114
											C200.402,439.789,200.809,440.486,200.356,440.741L200.356,440.741z"/>
									</g>
								</g>
							</g>
						</g>
						<g>
							<g>
								<g>
									<g>
										<path style="fill:#24318E;" d="M178.636,442.52c-1.813-2.549-4.878-3.272-7.451-1.35
											c-0.416,0.311-0.819-0.389-0.407-0.696c2.953-2.207,6.5-1.248,8.554,1.639C179.633,442.536,178.934,442.94,178.636,442.52
											L178.636,442.52z"/>
									</g>
								</g>
							</g>
						</g>
						<g>
							<g>
								<g>
									<g>
										<path style="fill:#24318E;" d="M174.142,443.876c-1.813-2.549-4.878-3.272-7.451-1.35
											c-0.416,0.311-0.819-0.389-0.407-0.697c2.953-2.207,6.5-1.248,8.554,1.639
											C175.14,443.892,174.441,444.296,174.142,443.876L174.142,443.876z"/>
									</g>
								</g>
							</g>
						</g>
						<g>
							<g>
								<g>
									<g>
										<path style="fill:#24318E;" d="M169.502,445.232c-1.813-2.549-4.878-3.272-7.451-1.35
											c-0.416,0.311-0.819-0.389-0.407-0.697c2.953-2.207,6.5-1.248,8.554,1.639C170.5,445.248,169.801,445.652,169.502,445.232
											L169.502,445.232z"/>
									</g>
								</g>
							</g>
						</g>
					</g>
				</g>
				<g>
					<g>
						<polygon style="fill:#FD945C;" points="262.166,407.746 279.582,436.603 295.602,434.648 285.446,406.477 						"/>
					</g>
					<g>
						<g>
							<g>
								<g>
									<path style="fill:#FFFFFF;" d="M297.699,433.6c-0.236,2.407-1.444,13.52-2.038,18.986
										c-0.201,1.852-0.333,3.056-0.333,3.056h-52.152c0.218-1.121,0.473-2.139,0.766-3.056c1.874-5.889,5.191-7.734,8.913-7.967
										c4.299-0.269,20.226-5.374,20.226-5.374s-0.319-4.911,2.619-5.889c2.934-0.978,9.414,1.985,9.414,1.985l7.795-0.935
										C292.909,434.407,298.014,430.373,297.699,433.6z"/>
								</g>
							</g>
						</g>
						<g>
							<path style="fill:#24318E;" d="M295.66,452.587c-0.201,1.852-0.333,3.056-0.333,3.056h-52.152
								c0.218-1.121,0.473-2.139,0.766-3.056H295.66z"/>
						</g>
						<g>
							<g>
								<g>
									<g>
										<path style="fill:#24318E;" d="M296.649,440.741c-3.935,2.225-6.215,6.666-4.243,11.011
											c0.213,0.469-0.482,0.88-0.696,0.407c-2.156-4.75,0.179-9.653,4.532-12.114
											C296.695,439.789,297.102,440.486,296.649,440.741L296.649,440.741z"/>
									</g>
								</g>
							</g>
						</g>
						<g>
							<g>
								<g>
									<g>
										<path style="fill:#24318E;" d="M274.928,442.52c-1.814-2.549-4.878-3.272-7.451-1.35
											c-0.416,0.311-0.819-0.389-0.407-0.696c2.953-2.207,6.5-1.248,8.554,1.639C275.926,442.536,275.227,442.94,274.928,442.52
											L274.928,442.52z"/>
									</g>
								</g>
							</g>
						</g>
						<g>
							<g>
								<g>
									<g>
										<path style="fill:#24318E;" d="M270.435,443.876c-1.814-2.549-4.878-3.272-7.451-1.35
											c-0.416,0.311-0.819-0.389-0.407-0.697c2.953-2.207,6.5-1.248,8.554,1.639
											C271.433,443.892,270.734,444.296,270.435,443.876L270.435,443.876z"/>
									</g>
								</g>
							</g>
						</g>
						<g>
							<g>
								<g>
									<g>
										<path style="fill:#24318E;" d="M265.795,445.232c-1.814-2.549-4.878-3.272-7.451-1.35
											c-0.416,0.311-0.819-0.389-0.407-0.697c2.953-2.207,6.5-1.248,8.554,1.639
											C266.793,445.248,266.094,445.652,265.795,445.232L265.795,445.232z"/>
									</g>
								</g>
							</g>
						</g>
					</g>
					<g>
						<path style="fill:#24318E;" d="M368.374,297.288c0,0,4.425,22.018-19.402,36.333c-20.142,12.1-86.155,0.717-86.155,0.717
							l31.054,80.958l-35.492,1.882c0,0-63.395-100.91-61.477-121.884c2.668-29.176,64.014-17.975,113.346-7.825
							C339.985,293.587,368.374,297.288,368.374,297.288z"/>
					</g>
					<g>
						<path style="fill:#275CC7;" d="M204.701,323.858c9.513,17.546,19.058,35.075,28.57,52.621
							c0.368,0.679,1.405,0.074,1.036-0.606c-9.513-17.546-19.057-35.075-28.57-52.621
							C205.369,322.573,204.333,323.179,204.701,323.858L204.701,323.858z"/>
					</g>
					<g>
						<g>
							<path style="fill:#275CC7;" d="M197.541,293.656c6.597,3.095,14.328,2.754,20.604-0.964c0.595-0.352,0.055-1.282-0.542-0.928
								c-5.926,3.51-13.277,3.893-19.52,0.964C197.461,292.436,196.915,293.362,197.541,293.656L197.541,293.656z"/>
						</g>
					</g>
					<g>
						<path style="fill:#275CC7;" d="M283.049,406.031c-0.207,0-0.404-0.12-0.492-0.321l-1.879-4.275
							c-0.119-0.272,0.004-0.589,0.276-0.708c0.272-0.12,0.589,0.005,0.708,0.276l1.879,4.275c0.12,0.271-0.004,0.589-0.276,0.708
							C283.194,406.017,283.121,406.031,283.049,406.031z M279.294,397.484c-0.207,0-0.404-0.12-0.492-0.321l-1.875-4.273
							c-0.119-0.272,0.005-0.589,0.276-0.708c0.273-0.119,0.589,0.005,0.708,0.276l1.874,4.272c0.119,0.272-0.004,0.589-0.276,0.708
							C279.44,397.47,279.366,397.484,279.294,397.484z M275.547,388.938c-0.207,0-0.404-0.12-0.493-0.322l-1.871-4.274
							c-0.119-0.272,0.005-0.589,0.277-0.708c0.272-0.12,0.589,0.005,0.707,0.277l1.871,4.273c0.119,0.272-0.005,0.588-0.277,0.708
							C275.693,388.924,275.619,388.938,275.547,388.938z M271.808,380.389c-0.207,0-0.404-0.12-0.493-0.322l-1.867-4.278
							c-0.119-0.272,0.005-0.589,0.278-0.707c0.272-0.119,0.588,0.005,0.707,0.278l1.867,4.277c0.119,0.272-0.006,0.589-0.277,0.708
							C271.952,380.375,271.879,380.389,271.808,380.389z M268.078,371.835c-0.208,0-0.405-0.121-0.493-0.323
							c-0.629-1.443-1.251-2.874-1.861-4.279c-0.118-0.272,0.007-0.589,0.279-0.707c0.272-0.117,0.589,0.007,0.707,0.279
							c0.61,1.405,1.231,2.835,1.86,4.278c0.119,0.272-0.006,0.588-0.278,0.707C268.222,371.82,268.149,371.835,268.078,371.835z
							 M264.362,363.276c-0.208,0-0.406-0.121-0.494-0.324c-0.64-1.477-1.259-2.911-1.851-4.284
							c-0.117-0.272,0.008-0.589,0.281-0.706c0.271-0.117,0.588,0.008,0.706,0.281c0.591,1.373,1.21,2.805,1.849,4.283
							c0.118,0.272-0.007,0.589-0.279,0.707C264.505,363.262,264.433,363.276,264.362,363.276z M260.67,354.706
							c-0.208,0-0.407-0.122-0.494-0.326c-0.463-1.082-0.899-2.103-1.303-3.055c-0.171-0.403-0.347-0.815-0.528-1.236
							c-0.117-0.272,0.009-0.589,0.282-0.706c0.272-0.118,0.588,0.009,0.706,0.282c0.181,0.422,0.358,0.835,0.53,1.24
							c0.404,0.951,0.839,1.971,1.302,3.052c0.117,0.273-0.01,0.589-0.282,0.706C260.812,354.691,260.74,354.706,260.67,354.706z
							 M256.981,346.138c-0.207,0-0.404-0.12-0.492-0.322l-0.446-1.019c-0.462-1.057-0.938-2.144-1.421-3.253
							c-0.118-0.272,0.006-0.589,0.278-0.707c0.271-0.119,0.588,0.005,0.707,0.278c0.483,1.109,0.958,2.195,1.42,3.252l0.446,1.019
							c0.119,0.272-0.005,0.589-0.277,0.707C257.126,346.124,257.053,346.138,256.981,346.138z M253.265,337.588
							c-0.208,0-0.407-0.122-0.494-0.326c-0.66-1.542-1.254-2.948-1.816-4.299c-0.114-0.274,0.016-0.589,0.29-0.702
							c0.275-0.114,0.589,0.016,0.702,0.29c0.56,1.348,1.153,2.75,1.811,4.288c0.117,0.273-0.01,0.589-0.282,0.706
							C253.408,337.574,253.335,337.588,253.265,337.588z M314.451,331.145c-0.002,0-0.004,0-0.007,0
							c-1.53-0.019-3.101-0.057-4.672-0.114c-0.296-0.011-0.528-0.26-0.518-0.557c0.011-0.297,0.261-0.536,0.557-0.518
							c1.562,0.057,3.125,0.095,4.646,0.114c0.297,0.004,0.534,0.247,0.531,0.544C314.985,330.909,314.745,331.145,314.451,331.145z
							 M319.11,331.144c-0.294,0-0.534-0.236-0.537-0.53c-0.004-0.297,0.233-0.541,0.53-0.545c1.583-0.021,3.144-0.065,4.639-0.13
							c0.293-0.009,0.547,0.218,0.56,0.514c0.013,0.296-0.217,0.547-0.514,0.56c-1.506,0.065-3.077,0.109-4.67,0.13
							C319.115,331.144,319.113,331.144,319.11,331.144z M305.138,330.811c-0.01,0-0.021,0-0.032-0.001
							c-1.557-0.091-3.125-0.2-4.66-0.323c-0.296-0.024-0.516-0.283-0.493-0.579c0.024-0.296,0.286-0.516,0.579-0.492
							c1.528,0.123,3.088,0.231,4.637,0.322c0.296,0.017,0.522,0.271,0.505,0.568C305.658,330.591,305.421,330.811,305.138,330.811z
							 M328.412,330.733c-0.277,0-0.512-0.213-0.535-0.495c-0.023-0.296,0.197-0.555,0.493-0.578
							c0.39-0.031,0.778-0.063,1.163-0.098c1.156-0.103,2.297-0.261,3.393-0.471c0.29-0.055,0.573,0.135,0.629,0.427
							c0.056,0.292-0.135,0.573-0.427,0.629c-1.131,0.216-2.308,0.38-3.5,0.486c-0.388,0.034-0.779,0.067-1.173,0.098
							C328.441,330.733,328.427,330.733,328.412,330.733z M295.849,330.065c-0.018,0-0.037-0.001-0.056-0.003
							c-1.57-0.162-3.132-0.34-4.642-0.532c-0.295-0.037-0.503-0.306-0.466-0.601c0.037-0.295,0.308-0.504,0.601-0.466
							c1.502,0.191,3.056,0.369,4.617,0.529c0.295,0.03,0.51,0.294,0.48,0.59C296.355,329.859,296.121,330.065,295.849,330.065z
							 M249.692,328.975c-0.213,0-0.416-0.128-0.499-0.339c-0.606-1.524-1.172-2.989-1.683-4.356
							c-0.104-0.278,0.037-0.588,0.315-0.692c0.278-0.103,0.588,0.037,0.691,0.315c0.508,1.359,1.072,2.818,1.675,4.335
							c0.11,0.276-0.025,0.589-0.3,0.698C249.825,328.963,249.758,328.975,249.692,328.975z M337.511,328.944
							c-0.221,0-0.428-0.137-0.506-0.357c-0.1-0.279,0.046-0.587,0.326-0.686c1.446-0.515,2.841-1.148,4.147-1.883
							c0.259-0.146,0.586-0.053,0.732,0.205c0.145,0.259,0.053,0.586-0.205,0.732c-1.359,0.764-2.81,1.423-4.313,1.958
							C337.632,328.935,337.571,328.944,337.511,328.944z M286.605,328.886c-0.027,0-0.055-0.002-0.083-0.006
							c-1.604-0.248-3.156-0.514-4.611-0.789c-0.291-0.055-0.483-0.337-0.428-0.628c0.055-0.292,0.334-0.484,0.628-0.428
							c1.443,0.273,2.983,0.537,4.576,0.783c0.293,0.046,0.494,0.32,0.449,0.613C287.094,328.696,286.865,328.886,286.605,328.886z
							 M277.452,327.134c-0.041,0-0.083-0.004-0.125-0.015c-1.688-0.402-3.214-0.822-4.534-1.25
							c-0.282-0.091-0.437-0.394-0.346-0.677c0.091-0.282,0.395-0.437,0.677-0.346c1.293,0.419,2.791,0.832,4.452,1.227
							c0.289,0.069,0.467,0.358,0.398,0.647C277.915,326.968,277.695,327.134,277.452,327.134z M345.577,324.399
							c-0.155,0-0.309-0.067-0.415-0.196c-0.189-0.229-0.156-0.568,0.074-0.756c1.158-0.952,2.255-2.024,3.261-3.186
							c0.194-0.224,0.533-0.249,0.758-0.055c0.225,0.194,0.249,0.534,0.055,0.758c-1.045,1.207-2.186,2.322-3.391,3.312
							C345.818,324.359,345.697,324.399,345.577,324.399z M268.675,324.084c-0.095,0-0.19-0.025-0.277-0.077
							c-0.758-0.457-1.288-0.911-1.618-1.387c-0.404-0.581-0.833-1.371-1.348-2.486c-0.125-0.269-0.007-0.589,0.262-0.713
							c0.269-0.125,0.589-0.007,0.713,0.262c0.482,1.043,0.892,1.803,1.255,2.324c0.239,0.344,0.673,0.707,1.291,1.08
							c0.254,0.153,0.336,0.484,0.182,0.737C269.034,323.991,268.856,324.084,268.675,324.084z M246.443,320.242
							c-0.224,0-0.433-0.141-0.509-0.364c-0.535-1.571-1.013-3.073-1.42-4.464c-0.084-0.285,0.08-0.583,0.365-0.667
							c0.283-0.083,0.583,0.079,0.667,0.365c0.403,1.375,0.876,2.863,1.406,4.419c0.095,0.281-0.055,0.586-0.335,0.682
							C246.559,320.233,246.5,320.242,246.443,320.242z M351.662,317.403c-0.098,0-0.196-0.026-0.284-0.082
							c-0.252-0.157-0.328-0.489-0.171-0.74c0.793-1.268,1.517-2.63,2.152-4.048c0.122-0.271,0.44-0.392,0.71-0.271
							c0.271,0.121,0.392,0.439,0.271,0.71c-0.655,1.462-1.402,2.868-2.222,4.178C352.016,317.314,351.841,317.403,351.662,317.403z
							 M264.092,316.153c-0.211,0-0.411-0.125-0.497-0.332c-0.565-1.369-1.171-2.828-1.821-4.277c-0.121-0.271,0-0.589,0.271-0.71
							c0.27-0.121,0.589,0,0.71,0.271c0.656,1.463,1.265,2.929,1.834,4.306c0.113,0.274-0.017,0.589-0.292,0.702
							C264.229,316.141,264.16,316.153,264.092,316.153z M243.859,311.29c-0.247,0-0.469-0.171-0.524-0.422
							c-0.377-1.712-0.634-3.281-0.762-4.663c-0.027-0.296,0.19-0.557,0.486-0.584c0.298-0.029,0.557,0.19,0.585,0.486
							c0.123,1.338,0.373,2.862,0.741,4.53c0.064,0.29-0.119,0.576-0.409,0.64C243.936,311.286,243.897,311.29,243.859,311.29z
							 M355.478,308.923c-0.052,0-0.104-0.007-0.156-0.023c-0.284-0.086-0.445-0.386-0.359-0.67
							c0.795-2.629,1.015-4.447,1.017-4.465c0.035-0.294,0.301-0.505,0.597-0.471c0.295,0.034,0.506,0.301,0.471,0.596
							c-0.009,0.077-0.23,1.923-1.056,4.651C355.922,308.773,355.709,308.923,355.478,308.923z M260.219,307.672
							c-0.191,0-0.376-0.102-0.473-0.282c-0.809-1.498-1.602-2.77-2.424-3.891c-0.175-0.239-0.124-0.576,0.116-0.751
							c0.24-0.175,0.576-0.124,0.751,0.116c0.851,1.161,1.669,2.474,2.502,4.016c0.141,0.261,0.044,0.587-0.217,0.728
							C260.393,307.652,260.305,307.672,260.219,307.672z M243.272,302.056c-0.038,0-0.078-0.004-0.118-0.013
							c-0.29-0.065-0.472-0.352-0.407-0.642c0.444-1.987,1.439-3.326,2.957-3.979c0.273-0.117,0.589,0.009,0.706,0.281
							c0.117,0.272-0.009,0.589-0.281,0.706c-1.201,0.517-1.964,1.572-2.333,3.227C243.74,301.886,243.518,302.056,243.272,302.056z
							 M254.597,300.312c-0.119,0-0.239-0.039-0.338-0.12c-1.241-1.006-2.549-1.671-3.888-1.979
							c-0.289-0.066-0.47-0.355-0.403-0.644c0.066-0.289,0.353-0.471,0.644-0.403c1.5,0.344,2.954,1.082,4.324,2.192
							c0.231,0.187,0.266,0.525,0.079,0.756C254.909,300.245,254.754,300.312,254.597,300.312z"/>
					</g>
					<g>
						<polygon style="fill:#275CC7;" points="252.663,410.629 256.938,421.54 296.985,420.238 294.468,409.214 						"/>
					</g>
				</g>
			</g>
		</g>
	</g>
</g>
</svg>
